<svg width="415" height="818" viewBox="0 0 415 818" fill="none" xmlns="http://www.w3.org/2000/svg">
    <g clip-path="url(#clip0)">
        <path fill-rule="evenodd" clip-rule="evenodd" d="M407 242.614C432.53 228.533 450 199.943 450 166.964C450 120.04 414.63 82 371 82C344.485 82 321.02 96.0493 306.691 117.604C301.863 116.13 296.767 115.34 291.5 115.34C272.219 115.34 255.235 125.914 245.287 141.964C237.984 133.525 227.565 128.246 216 128.246C200.366 128.246 186.826 137.893 180.247 151.954C169.307 145.087 156.581 141.152 143 141.152C118.225 141.152 96.294 154.246 82.8628 174.351C78.4494 173.041 73.8007 172.342 69 172.342C60.8397 172.342 53.1184 174.363 46.2455 177.966C38.671 163.686 24.3808 154.058 8 154.058C-16.3005 154.058 -36 175.245 -36 201.38C-36 221.85 -23.9151 239.285 -7 245.881V894H407V242.614ZM242.458 203.531H242.723C242.694 203.474 242.666 203.417 242.637 203.36C242.578 203.417 242.518 203.474 242.458 203.531Z" fill="url(#paint0_linear)"/>
    </g>
    <defs>
        <linearGradient id="paint0_linear" x1="200" y1="116.416" x2="200" y2="668.683" gradientUnits="userSpaceOnUse">
            <stop stop-color="#FAF8F5"/>
            <stop offset="1" stop-color="white" stop-opacity="0"/>
        </linearGradient>
        <clipPath id="clip0">
            <rect width="415" height="818" fill="white"/>
        </clipPath>
    </defs>
</svg>
